<svg xmlns="http://www.w3.org/2000/svg" viewBox="0 0 256 256" width="100%" height="100%">
  <rect width="256" height="256" rx="56" fill="#0b101e" />
  
  <defs>
    <filter id="neonGlow" x="-20%" y="-20%" width="140%" height="140%">
      <feGaussianBlur stdDeviation="3" result="blur" />
      <feComposite in="SourceGraphic" in2="blur" operator="over" />
    </filter>
  </defs>

  <g filter="url(#neonGlow)">
    <rect x="68" y="44" width="120" height="176" rx="20" fill="none" stroke="#00e5ff" stroke-width="6" />
    
    <line x1="116" y1="56" x2="140" y2="56" stroke="#00e5ff" stroke-width="4" stroke-linecap="round" />

    <path d="M 88 28 L 88 48" stroke="#00e5ff" stroke-width="6" stroke-linecap="round" />
    <path d="M 128 28 L 128 48" stroke="#00e5ff" stroke-width="6" stroke-linecap="round" />
    <path d="M 168 28 L 168 48" stroke="#00e5ff" stroke-width="6" stroke-linecap="round" />

    <rect x="84" y="80" width="20" height="20" rx="6" fill="none" stroke="#00e5ff" stroke-width="3" />
    <rect x="118" y="80" width="20" height="20" rx="6" fill="none" stroke="#00e5ff" stroke-width="3" />
    <rect x="152" y="80" width="20" height="20" rx="6" fill="none" stroke="#00e5ff" stroke-width="3" />
    
    <rect x="84" y="116" width="20" height="20" rx="6" fill="none" stroke="#00e5ff" stroke-width="3" />
    <rect x="118" y="116" width="20" height="20" rx="6" fill="#00e5ff" />
    <rect x="152" y="116" width="20" height="20" rx="6" fill="none" stroke="#00e5ff" stroke-width="3" />
    
    <rect x="84" y="152" width="20" height="20" rx="6" fill="none" stroke="#00e5ff" stroke-width="3" />
    <rect x="118" y="152" width="20" height="20" rx="6" fill="none" stroke="#00e5ff" stroke-width="3" />
    <rect x="152" y="152" width="20" height="20" rx="6" fill="none" stroke="#00e5ff" stroke-width="3" />

    <line x1="108" y1="204" x2="148" y2="204" stroke="#00e5ff" stroke-width="4" stroke-linecap="round" />
  </g>

  <g transform="translate(110, 226)">
    <rect x="0" y="0" width="14" height="20" fill="#0055A4" />
    <rect x="12" y="0" width="14" height="20" fill="#FFFFFF" />
    <rect x="24" y="0" width="12" height="20" fill="#EF4135" />
  </g>
</svg>